<svg xmlns="http://www.w3.org/2000/svg" viewBox="0 0 250 75"><defs><style>.cls-1{fill:#072441;}.cls-2{fill:none;}</style></defs><g id="Layer_2" data-name="Layer 2"><g id="Layer_1-2" data-name="Layer 1"><path class="cls-1" d="M71.8,21.43l-16.54-.77L54.05,25.5c1.86.41,4.19-.59,10.49-.11,4.51.41,5.56,2.42,5.56,10.89a64.61,64.61,0,0,1-.4,8.42,26.72,26.72,0,0,1-8.15,1.13c-3,0-4.27-.64-4.27-1.93l.24-8.23-6.37-.48-.73,5.64c-.81,6.46,2.1,8.63,10.33,8.63a39.5,39.5,0,0,0,11.77-1.61c3.39-1.21,5.17-7.3,5.17-13.43,0-8.55-2.34-12.18-5.89-13"/><path class="cls-1" d="M39.85,41.07l-14.6-1.21a2.44,2.44,0,0,1-2.42-2.17c0-10.81,1.69-13.64,6.29-13.64h6L36,32.6l6.69-.72V24.29c0-2.33-1.69-4.51-4-4.27L23.15,21.71C18,22.28,15,28.33,15,37.61c0,3.3,2.75,5.8,6.54,5.88l14.6.41a45.66,45.66,0,0,1-.56,7.42A46.37,46.37,0,0,1,21.3,53.17c-9.93,0-14.12-2.42-14.12-8.14,0-3.79.81-12.18,1.37-18.8h-6C1.37,31.72,0,39,0,44.14c0,9,6.13,12.67,21.3,12.67A66.32,66.32,0,0,0,37.51,55c4.12-1.13,6.13-4.2,6.13-9.52a4,4,0,0,0-3.79-4.36"/><path class="cls-1" d="M196.43,43.41V18l-6.85.41,1,29c4.76-.08,5.8-1,5.8-4"/><rect class="cls-1" x="231.93" y="8.32" width="8.07" height="6.45"/><path class="cls-1" d="M243.14,23.08,228.7,21A4.82,4.82,0,0,0,223,25.1l-1.12,10.09c-.41,3.63,2,6.77,6.45,6.77h14.31a47.64,47.64,0,0,1-.6,6.13,81.86,81.86,0,0,1-15.08,1.21c-11.22,0-14.2-2.82-14.2-8.63V17.2l-6.86.4L206,42.85c0,4-.08,7.1-.56,8.87-2.26.89-6.21,1.46-10.81,1.46a44.7,44.7,0,0,1-8.63-.65l-.41,3.39a36.36,36.36,0,0,0,9.2.89c4.84,0,9.44-.49,12.1-1.38a7.08,7.08,0,0,0,5.31-6.15c2.26,2.5,6.71,3.65,14.62,3.65a110.13,110.13,0,0,0,16.86-1.21c4.59-.8,6.37-4.27,6.37-12.82,0-9.85-2.34-15.17-6.86-15.82M229.43,37.44l.72-12.34h5c6.13,0,7.43,1.62,7.5,13.59l-11.78-.36c-.48,0-1.45-.24-1.45-.89"/><path class="cls-1" d="M177.4,41.07l-14.61-1.21a2.44,2.44,0,0,1-2.42-2.17c0-10.81,1.7-13.64,6.3-13.64h6l.88,8.55,6.7-.72V24.29c0-2.33-1.69-4.51-3.95-4.27L160.7,21.71c-5.17.57-8.15,6.62-8.15,15.9,0,3.3,2.74,5.8,6.53,5.88l14.36.41a45.66,45.66,0,0,1-.56,7.42c-3.31,1.13-7.75,1.85-14,1.85-9.92,0-14.12-2.42-14.12-8.14,0-3.79.81-12.18,1.38-18.8h-6c-1.21,5.49-2.59,12.75-2.59,17.91,0,9,6.14,12.67,21.3,12.67A66.4,66.4,0,0,0,175.06,55c4.11-1.13,6.13-4.2,6.13-9.52a4,4,0,0,0-3.79-4.36"/><path class="cls-1" d="M122.14,23.08c.4,6.7.64,13.72.64,17.27a78.31,78.31,0,0,1-9.53.71c-.2-13.19-2.53-17.36-6.84-18L92,21a4.77,4.77,0,0,0-5.73,4.11L85.11,37.61c-.32,3.63,2,6.77,6.45,6.77H105.9c-.08,3.13-.35,5.62-1,7.1-2.42.89-6.45,1.29-10.32,1.29a62.78,62.78,0,0,1-10.25-.64l-.4,3.38a49.38,49.38,0,0,0,10.81.89c4,0,8.71-.48,11.37-1.45,4.47-1.64,6.81-5.08,7.14-10.61,4.07-.07,7.77-.2,11-.36s6-2.34,6-6.78c0-2-.32-7.74-1-14.52ZM92.69,39.86l.73-14.76h5c6.2,0,7.43,1.22,7.5,16-4.69,0-7.43-.1-11.78-.32-.8,0-1.45-.32-1.45-1"/><rect class="cls-1" x="110.2" y="11.79" width="21.54" height="4.44"/><rect class="cls-2" width="250" height="75"/></g></g></svg>