<svg width="150" height="16" viewBox="0 0 150 16" fill="none" xmlns="http://www.w3.org/2000/svg">
<path d="M149.984 6.72688C149.221 6.72688 148.458 6.72688 147.711 6.71141C147.524 6.71141 147.477 6.77327 147.477 6.94337C147.493 8.59803 147.508 11.9847 147.508 12.031C147.477 13.2527 148.193 13.4228 149.408 13.4383C149.611 13.4383 149.766 13.5929 149.766 13.794V15.4177C149.766 15.6651 149.579 15.8661 149.33 15.8971C148.458 16.0053 147.633 15.9898 146.854 15.8971C145.686 15.6651 144.861 14.7836 144.643 13.5465C144.549 13.0053 144.487 12.4795 144.487 11.9228C144.487 10.2991 144.487 8.65988 144.487 7.03616C144.487 6.78873 144.425 6.69595 144.176 6.72688C143.849 6.72688 143.553 6.72688 143.241 6.72688C142.992 6.72688 143.023 6.68048 143.023 6.24749C143.023 5.75264 143.008 5.31965 143.008 4.87119C143.008 4.6083 143.023 4.53098 143.21 4.54644C143.553 4.54644 143.802 4.54644 144.222 4.54644C144.425 4.54644 144.503 4.46912 144.487 4.26809C144.487 3.92788 144.487 3.24746 144.487 2.82993C144.487 2.48972 144.612 2.38148 144.939 2.25776L147.057 1.43817C147.275 1.36085 147.493 1.51549 147.493 1.73199C147.493 2.52065 147.493 3.43303 147.477 4.19077C147.477 4.46912 147.571 4.56191 147.851 4.54644C148.567 4.53098 149.284 4.53098 150 4.53098V6.72688H149.984Z" fill="#FF690F"/>
<path d="M86.8382 6.63408C86.9939 6.37119 87.1496 6.12377 87.2275 6.03098C88.2241 4.77839 89.9994 4.28354 91.4943 4.85571C92.1484 5.10314 92.6311 5.56706 92.9114 6.20109C93.0516 6.52583 93.1294 6.44851 93.3007 6.23201C94.3441 4.87118 95.73 4.37633 97.3963 4.76293C98.4864 5.01035 99.1404 5.78356 99.5297 6.80418C99.7477 7.39182 99.8567 8.01038 99.8567 8.62894C99.8723 10.964 99.8723 13.2991 99.8879 15.6187C99.8879 15.8352 99.8256 15.8816 99.6231 15.8816C98.8757 15.8816 98.1282 15.8661 97.3807 15.8816C97.0848 15.8816 96.9914 15.8043 96.9914 15.495C97.007 13.5929 96.9914 11.6908 97.007 9.80421C97.007 9.18565 96.9914 8.58255 96.7578 7.99492C96.3685 6.97429 95.2473 6.64954 94.3752 7.3145C93.9081 7.67017 93.6589 8.14956 93.6278 8.70626C93.5966 9.20111 93.5966 9.71143 93.5966 10.2063C93.5966 11.9846 93.581 13.763 93.5966 15.5414C93.5966 15.8043 93.5188 15.8816 93.254 15.8816C92.5221 15.8661 91.7746 15.8661 91.0427 15.8816C90.7624 15.8816 90.669 15.7888 90.6846 15.5104C90.7001 13.5001 90.6846 11.4898 90.6846 9.47947C90.6846 9.03101 90.6378 8.59801 90.5444 8.16502C90.3108 7.098 89.1585 6.64954 88.2397 7.25264C87.5545 7.7011 87.2742 8.36605 87.2742 9.17019C87.2742 11.2733 87.2586 13.3919 87.2742 15.495C87.2742 15.7733 87.2119 15.8661 86.916 15.8661C86.153 15.8352 85.3744 15.8507 84.5957 15.8661C84.3621 15.8661 84.3154 15.7888 84.3154 15.5878C84.3154 12.1238 84.3154 8.65987 84.3154 5.19592C84.3154 4.96396 84.3777 4.90211 84.6113 4.90211C85.2498 4.91757 85.8882 4.91757 86.5267 4.90211C86.7447 4.90211 86.8226 4.9485 86.8382 5.18046C86.8382 5.5516 86.807 6.24748 86.8382 6.63408Z" fill="#FF690F"/>
<path d="M125.349 9.49493C125.925 8.25781 126.719 7.15986 127.451 6.03098C127.716 5.61345 127.981 5.21139 128.261 4.80932C128.339 4.70107 128.417 4.59282 128.572 4.59282C129.662 4.59282 130.752 4.59282 131.92 4.59282C131.64 4.9485 131.391 5.25778 131.157 5.56706C130.254 6.68047 129.351 7.80935 128.448 8.9073C128.245 9.13926 128.23 9.32483 128.401 9.57225C129.662 11.5207 130.893 13.4847 132.138 15.4486C132.325 15.7424 132.201 15.8661 132.014 15.8816C131.064 15.8816 130.114 15.8816 129.164 15.8971C128.884 15.8971 128.712 15.8043 128.588 15.5568C127.809 14.1496 127.031 12.7424 126.252 11.3197C126.112 11.0568 126.065 11.1187 125.894 11.3042C125.287 11.8919 125.193 12.5877 125.24 13.3764C125.287 14.1187 125.24 14.861 125.255 15.6032C125.255 15.8816 125.1 15.8661 124.742 15.8661C124.01 15.8661 123.34 15.8816 122.624 15.8816C122.172 15.8816 122.234 15.7115 122.234 15.4795C122.234 12.0465 122.234 8.61348 122.234 5.18046C122.234 3.55673 122.234 1.99486 122.234 0.340209C122.234 0.154641 122.39 0 122.577 0H124.928C125.115 0 125.271 0.154641 125.271 0.340209C125.271 3.27838 125.271 6.13923 125.255 9.06194C125.255 9.20111 125.255 9.34029 125.255 9.47947C125.209 9.58772 125.318 9.57225 125.349 9.49493Z" fill="#FF690F"/>
<path d="M72.2155 5.39696C72.2155 5.36603 72.2155 4.96397 72.1999 4.70108C72.1999 4.57736 72.2933 4.48458 72.4179 4.48458C72.9785 4.48458 74.1464 4.46912 74.6292 4.46912C74.7538 4.46912 74.8472 4.5619 74.8472 4.68561C74.8316 7.60832 74.8472 11.0259 74.8472 13.9331C74.8472 14.5208 74.8472 15.1084 74.8472 15.696C74.8472 15.9434 74.7693 15.928 74.3956 15.928C73.6793 15.928 73.181 15.928 72.5892 15.928C72.2933 15.928 72.231 15.8971 72.2466 15.696C72.2622 15.4795 72.2466 15.263 72.2466 14.9692C70.5181 16.0362 68.7428 16.2218 66.8897 15.5723C65.6439 15.1239 64.7095 14.2733 63.9932 13.1908C62.7007 11.2114 62.9499 8.3042 64.4915 6.51037C66.4848 4.19076 69.9107 3.91241 72.2155 5.39696ZM65.7529 10.2217C65.7529 12.0001 67.2011 13.4383 68.992 13.4383C70.7828 13.4383 72.231 12.0001 72.231 10.2063C72.231 8.44338 70.7828 7.00522 69.0075 7.00522C67.2167 6.98976 65.7529 8.44338 65.7529 10.2217Z" fill="#3E3D3C"/>
<path d="M51.364 5.38149C51.364 5.21138 51.3484 5.01035 51.364 4.87118C51.364 4.732 51.4107 4.65468 51.6443 4.65468C51.8779 4.65468 52.1893 4.65468 52.3762 4.63921C52.8745 4.63921 53.2016 4.65468 53.6999 4.63921C53.9335 4.62375 53.9957 4.70107 53.9957 4.93303C53.9802 6.63408 53.9957 8.33512 53.9957 10.0207C53.9957 11.8919 53.9957 13.7475 53.9957 15.6187C53.9957 15.897 53.9179 15.9434 53.6532 15.9434C52.9835 15.928 52.3139 15.928 51.6443 15.9434C51.4574 15.9434 51.3796 15.897 51.3952 15.696C51.4107 15.4795 51.3952 15.263 51.3952 14.9692C49.7445 15.9898 48.0315 16.2063 46.2407 15.6496C44.9637 15.2476 43.9982 14.428 43.2508 13.3609C41.8492 11.3661 42.0205 8.45884 43.5778 6.58769C45.5555 4.20622 49.0126 3.88148 51.364 5.38149ZM51.3796 10.2372C51.3796 8.45884 49.9313 7.00521 48.1405 7.00521C46.3652 7.00521 44.9014 8.44337 44.9014 10.1908C44.8859 11.9692 46.3341 13.4228 48.1249 13.4228C49.9158 13.4383 51.3796 12.0156 51.3796 10.2372Z" fill="#3E3D3C"/>
<path d="M110.586 14.9537C109.792 15.4022 109.029 15.7424 108.173 15.8661C104.435 16.4074 101.305 13.4847 101.476 9.94338C101.694 5.58252 106.382 3.1392 110.244 5.25778C110.399 5.35056 110.555 5.45881 110.555 5.45881C110.555 5.38149 110.555 4.99489 110.555 4.80932C110.555 4.71653 110.633 4.62375 110.742 4.62375C111.194 4.62375 112.393 4.63921 112.891 4.62375C113.078 4.62375 113.14 4.67014 113.14 4.87117C113.14 8.38152 113.14 12.0929 113.14 15.6187C113.14 15.7579 113.031 15.8661 112.891 15.8661C112.393 15.8661 111.318 15.8816 110.789 15.8661C110.68 15.8661 110.586 15.7733 110.586 15.6651V14.9537ZM104.061 10.2217C104.061 12.0001 105.51 13.4383 107.285 13.4537C109.091 13.4537 110.555 12.0001 110.555 10.2217C110.555 8.45884 109.076 7.00521 107.301 7.00521C105.525 6.98975 104.061 8.44337 104.061 10.2217Z" fill="#FF690F"/>
<path d="M34.7954 15.9898C33.5184 16.0517 32.3038 15.8352 31.1826 15.2321C31.0268 15.1548 30.9645 15.0929 31.0113 14.9073C31.1826 14.2578 31.3539 13.5929 31.5096 12.9434C31.5719 12.696 31.603 12.6341 31.8522 12.7733C33.098 13.4382 34.4372 13.6393 35.8387 13.4228C36.6329 13.2991 37.2402 12.9125 37.4738 12.0929C37.7074 11.2424 37.3337 10.5929 36.7419 10.0516C36.2748 9.63409 35.7141 9.38667 35.1535 9.12378C34.2659 8.70625 33.3783 8.27325 32.6464 7.6083C30.5441 5.75261 30.731 2.64434 33.0513 1.05154C34.3126 0.185552 35.7297 0.0154472 37.2091 0.0773035C38.0812 0.123696 38.9221 0.324728 39.7474 0.649474C39.981 0.742258 40.0589 0.835043 39.9654 1.08247C39.7941 1.65464 39.6384 2.22681 39.4983 2.81444C39.436 3.10826 39.3425 3.18558 39.0466 3.06187C38.3615 2.79898 37.6607 2.58248 36.9132 2.53609C36.3993 2.50516 35.901 2.55155 35.4338 2.72166C34.7954 2.95362 34.3438 3.38661 34.2503 4.08249C34.1569 4.73198 34.4684 5.22683 34.9667 5.59797C35.4494 5.96911 35.9633 6.26293 36.5239 6.51035C37.5206 6.94334 38.4705 7.45366 39.2802 8.19593C41.3825 10.1135 40.9309 13.7939 38.4238 15.1548C37.287 15.7888 36.0723 16.0517 34.7954 15.9898Z" fill="#3E3D3C"/>
<path d="M79.1609 6.64955C79.4568 6.17016 79.7215 5.70624 80.1264 5.35057C80.7805 4.76293 81.528 4.46912 82.4312 4.57737C82.6336 4.60829 82.7115 4.67015 82.7115 4.88665C82.6959 5.64439 82.6959 6.40212 82.7115 7.1444C82.7115 7.34543 82.6647 7.42275 82.4467 7.39182C82.2287 7.3609 81.9951 7.37636 81.7771 7.39182C80.7182 7.42275 79.9551 8.02585 79.6904 9.04648C79.5814 9.46401 79.5503 9.88154 79.5503 10.2991C79.5503 12.0465 79.5347 13.8094 79.5503 15.5568C79.5503 15.8197 79.488 15.8971 79.2232 15.8971C78.4135 15.8816 77.6193 15.8816 76.8095 15.8971C76.5915 15.8971 76.498 15.8507 76.498 15.6032C76.5136 12.0929 76.498 8.58256 76.498 5.07222C76.498 4.85572 76.5603 4.79386 76.7783 4.79386C77.448 4.80933 78.1176 4.80933 78.7872 4.79386C78.9896 4.79386 79.0519 4.85572 79.0675 5.05675C79.0831 5.59799 79.1298 6.12377 79.1609 6.64955Z" fill="#3E3D3C"/>
<path d="M117.36 6.83511C117.469 6.60315 117.563 6.44851 117.625 6.3248C118.186 5.25778 119.338 4.50004 120.475 4.59283C120.786 4.60829 120.895 4.71654 120.895 5.04128C120.864 5.7217 120.88 6.40212 120.895 7.06707C120.895 7.3145 120.848 7.39182 120.584 7.39182C120.475 7.39182 120.366 7.39182 120.241 7.39182C118.731 7.39182 117.843 8.21141 117.734 9.71143C117.656 10.9486 117.703 12.2011 117.687 13.4383C117.687 14.1651 117.687 14.8764 117.687 15.6032C117.687 15.8043 117.64 15.9125 117.407 15.9125C116.582 15.897 115.756 15.897 114.931 15.9125C114.728 15.9125 114.697 15.8352 114.697 15.6651C114.697 12.1547 114.697 8.62894 114.697 5.1186C114.697 4.93304 114.744 4.87118 114.931 4.87118C115.616 4.88664 116.301 4.88664 116.971 4.87118C117.127 4.87118 117.173 4.91757 117.189 5.07221C117.267 5.59799 117.313 6.21655 117.36 6.83511Z" fill="#FF690F"/>
<path d="M60.0701 11.6444C60.0701 12.9898 60.0701 14.3352 60.0701 15.6651C60.0701 15.9125 60.0234 15.9898 59.7587 15.9898C58.9956 15.9744 58.217 15.9744 57.4384 15.9898C57.1892 15.9898 57.1269 15.928 57.1269 15.6805C57.1425 13.0207 57.1269 10.3609 57.1425 7.68562C57.1425 7.37634 57.0647 7.31448 56.7688 7.32995C56.5041 7.34541 56.2549 7.32995 55.959 7.34541C55.7721 7.36088 55.6787 7.31448 55.6787 7.09799C55.6943 6.54128 55.6943 5.98458 55.6787 5.42787C55.6787 5.25777 55.7254 5.19591 55.9123 5.19591C56.2393 5.19591 56.4262 5.19591 56.7532 5.21137C57.0491 5.2423 57.1425 5.14952 57.1269 4.8557C57.0958 3.98971 57.2048 3.15465 57.5941 2.36599C58.2014 1.12886 59.1981 0.43298 60.5685 0.262875C61.3004 0.170091 62.6863 0.293803 63.683 0.742261C63.8231 0.804117 63.9321 0.835045 63.9165 1.03608C63.7764 1.57732 63.6207 2.16495 63.4649 2.75259C63.4182 2.86084 63.3248 2.90723 63.2002 2.86084C62.9666 2.78352 62.6396 2.6598 62.515 2.62888C62.1413 2.53609 61.7675 2.50516 61.3782 2.55156C60.7709 2.61341 60.3972 2.96908 60.2259 3.52579C60.0857 3.98971 60.0546 4.48456 60.039 4.97941C60.0234 5.18045 60.1013 5.22684 60.2882 5.22684C60.8488 5.21137 61.4094 5.22684 61.97 5.22684C62.1724 5.22684 62.2503 5.27323 62.2347 5.48973C62.2191 6.0155 62.2191 6.55675 62.2347 7.08252C62.2503 7.32995 62.1413 7.37634 61.9233 7.37634C61.3938 7.36088 60.8799 7.37634 60.3504 7.36088C60.1169 7.34541 60.0546 7.4382 60.0546 7.67016C60.0701 8.95368 60.0701 10.299 60.0701 11.6444Z" fill="#3E3D3C"/>
<path d="M135.097 10.9331C134.848 10.9331 134.77 10.9795 134.801 11.2424C134.973 12.464 135.767 13.2991 136.919 13.4537C138.056 13.6084 139.349 13.33 139.816 12.2475C139.894 12.0465 140.003 12.0156 140.19 12.0156C140.89 12.031 141.638 12.0156 142.339 12.0156C142.572 12.031 142.65 12.1238 142.557 12.4949C142.074 14.397 140.766 15.5259 138.866 15.8661C135.689 16.3919 133.104 15.2785 132.232 12.2784C131.843 10.9331 131.812 9.55677 132.123 8.18047C132.637 5.92272 134.568 4.43817 136.904 4.28353C139.193 4.11343 141.404 5.21137 142.183 7.48459C142.588 8.55161 142.572 9.5877 142.603 10.7011C142.603 10.964 142.292 10.9795 142.089 10.9795C140.875 10.9949 136.296 10.9331 135.097 10.9331ZM137.231 8.95368C137.916 8.95368 138.601 8.93821 139.286 8.95368C139.582 8.95368 139.676 8.89182 139.645 8.64439C139.551 8.02583 139.286 7.46913 138.772 7.02067C137.947 6.29386 136.67 6.27839 135.798 6.97428C135.222 7.4382 134.957 8.02583 134.848 8.67532C134.817 8.89182 134.864 8.96914 135.144 8.96914C135.845 8.93821 136.53 8.95368 137.231 8.95368Z" fill="#FF690F"/>
<path d="M17.5873 11.8764C17.743 12.0156 17.8676 12.1238 17.9921 12.2475C17.961 12.2939 17.9454 12.3249 17.9143 12.3558C16.9021 13.4228 15.8743 14.4744 14.8621 15.5414C14.4728 15.9589 13.99 16.0672 13.445 15.9125C13.227 15.8507 13.0557 15.727 12.9 15.5723C11.8722 14.4898 10.8288 13.4228 9.80104 12.3403C9.78546 12.3249 9.76989 12.3094 9.75432 12.263C9.86333 12.1393 9.98791 12.031 10.1125 11.8919C9.95676 11.6754 9.76989 11.5053 9.58302 11.3197C9.50516 11.2424 9.4273 11.3197 9.34944 11.3661C9.00684 11.5362 8.67982 11.7218 8.33723 11.8609C7.48074 12.2166 6.56197 12.3403 5.64319 12.263C2.7 12.0156 0.535427 9.81968 0.0993986 7.22172C-0.21205 5.41243 0.208406 3.75777 1.36077 2.31961C2.27954 1.15981 3.49419 0.433 4.958 0.154647C8.36837 -0.510308 11.4984 1.74744 12.1369 4.9485C12.4639 6.57223 12.168 8.08771 11.2804 9.49494C11.2337 9.55679 11.2026 9.61865 11.1558 9.68051C11.2493 9.85061 11.5607 10.1908 11.7787 10.33C11.8722 10.2527 11.95 10.1754 12.0746 10.0826C12.3705 10.3919 12.6664 10.7011 12.9622 11.0104C13.2581 11.3197 13.554 11.629 13.8654 11.9537C14.4728 11.3197 15.0645 10.7011 15.6719 10.0826C15.7653 10.1599 15.8587 10.2372 15.9677 10.33C16.1702 10.129 16.3726 9.92793 16.5751 9.71143C16.5128 9.61865 16.466 9.54133 16.4193 9.46401C15.921 8.67534 15.594 7.82482 15.5006 6.91244C15.2981 4.87118 15.9054 3.09282 17.4315 1.67012C18.3036 0.85053 19.3314 0.324751 20.5305 0.123719C21.1689 0.0154702 21.8074 0.0154705 22.4459 0.108255C24.408 0.386608 25.8718 1.40724 26.884 3.09282C27.5536 4.19077 27.7872 5.41243 27.6938 6.69594C27.5069 9.20112 25.7005 11.3816 23.2712 12.0774C22.4926 12.2939 21.6984 12.3403 20.8886 12.263C19.9854 12.1702 19.1445 11.8764 18.3815 11.4125C18.179 11.2888 18.179 11.2888 18.0077 11.4589C17.8831 11.5671 17.743 11.7063 17.5873 11.8764ZM17.3848 6.13924C17.4004 8.42792 19.1912 10.3455 21.5738 10.3455C24.0654 10.3455 25.7784 8.3042 25.7939 6.1547C25.7939 3.89695 23.9408 1.94848 21.5894 1.94848C19.3314 1.94848 17.416 3.77324 17.3848 6.13924ZM6.14151 1.94848C3.82122 1.93301 1.93695 3.81963 1.92138 6.12377C1.9058 8.31967 3.66549 10.33 6.12594 10.33C8.49295 10.33 10.3149 8.42792 10.3149 6.12377C10.3305 3.77324 8.39952 1.94848 6.14151 1.94848Z" fill="#FF690F"/>
<path d="M21.6985 2.36603C22.1813 2.36603 22.6329 2.45881 23.0689 2.64438C23.3959 2.78356 23.5361 3.13923 23.3959 3.44851C23.2713 3.77326 22.9443 3.91243 22.6017 3.81965C22.3681 3.75779 22.1345 3.69594 21.9009 3.64954C20.951 3.4949 19.6585 4.17532 19.3626 5.41245C19.3471 5.50523 19.3315 5.59801 19.3003 5.67534C19.2069 6.03101 18.911 6.23204 18.5529 6.18565C18.2103 6.12379 17.9923 5.81451 18.0546 5.44337C18.2881 4.08254 19.0668 3.13923 20.3437 2.59799C20.7797 2.44335 21.2313 2.36603 21.6985 2.36603Z" fill="#363635"/>
<path d="M5.98589 2.35056C7.74558 2.30417 9.33397 3.72686 9.56755 5.50523C9.61427 5.84544 9.39626 6.13925 9.05366 6.21657C8.72664 6.27843 8.43076 6.09286 8.33733 5.75265C8.29061 5.58255 8.25947 5.41244 8.21275 5.24234C7.9013 4.28357 6.92024 3.58769 5.9236 3.63408C5.69001 3.64954 5.472 3.7114 5.23841 3.74233C5.16055 3.75779 5.08269 3.78872 4.98925 3.80418C4.64666 3.86604 4.33521 3.69593 4.24177 3.37119C4.14834 3.06191 4.30406 2.73716 4.61551 2.59799C5.00482 2.44335 5.40971 2.38149 5.98589 2.35056Z" fill="#363635"/>
</svg>
